<?xml version="1.0" encoding="UTF-8" standalone="no"?>
<!-- Generator: Adobe Illustrator 24.1.1, SVG Export Plug-In . SVG Version: 6.00 Build 0)  -->

<svg
   xmlns:dc="http://purl.org/dc/elements/1.1/"
   xmlns:cc="http://creativecommons.org/ns#"
   xmlns:rdf="http://www.w3.org/1999/02/22-rdf-syntax-ns#"
   xmlns:svg="http://www.w3.org/2000/svg"
   xmlns="http://www.w3.org/2000/svg"
   xmlns:sodipodi="http://sodipodi.sourceforge.net/DTD/sodipodi-0.dtd"
   xmlns:inkscape="http://www.inkscape.org/namespaces/inkscape"
   version="1.1"
   id="Layer_1"
   x="0px"
   y="0px"
   viewBox="0 0 512 512"
   style="enable-background:new 0 0 512 512;"
   xml:space="preserve"
   sodipodi:docname="graph_5.svg"
   inkscape:version="0.92.5 (2060ec1f9f, 2020-04-08)"><metadata
   id="metadata873"><rdf:RDF><cc:Work
       rdf:about=""><dc:format>image/svg+xml</dc:format><dc:type
         rdf:resource="http://purl.org/dc/dcmitype/StillImage" /></cc:Work></rdf:RDF></metadata><defs
   id="defs871" /><sodipodi:namedview
   pagecolor="#ffffff"
   bordercolor="#666666"
   borderopacity="1"
   objecttolerance="10"
   gridtolerance="10"
   guidetolerance="10"
   inkscape:pageopacity="0"
   inkscape:pageshadow="2"
   inkscape:window-width="1848"
   inkscape:window-height="1030"
   id="namedview869"
   showgrid="false"
   inkscape:zoom="1.6542969"
   inkscape:cx="256"
   inkscape:cy="256"
   inkscape:window-x="72"
   inkscape:window-y="27"
   inkscape:window-maximized="1"
   inkscape:current-layer="g866" />
<g
   id="g866">
	<path
   d="M443.7,12.8L443.7,12.8c-37.7,0-68.2,30.5-68.2,68.2c0,24.1,12.5,45.3,31.3,57.4l0.3,0.2l-44.5,155.9l-4.2-0.1h-0.1   c-15.3,0-29.5,5.1-40.8,13.6l0.2-0.1l-82.3-68.5c2.3-6.5,3.6-14,3.6-21.8c0-37.7-30.5-68.2-68.2-68.2c-37.7,0-68.2,30.5-68.2,68.2   c0,19.1,7.9,36.4,20.5,48.8l0,0l-48.3,96.6c-2.1-0.2-4.2-0.3-6.4-0.3h-0.1C30.6,362.6,0,393.1,0,430.9s30.6,68.3,68.3,68.3   s68.3-30.6,68.3-68.3c0-23.2-11.6-43.8-29.4-56.1l-0.2-0.1l45.6-91.2c5.4,1.5,11.7,2.5,18.1,2.5c17.7,0,33.8-6.8,45.9-17.8l0,0   l79.7,66.4c-3.8,8.3-6.1,18-6.1,28.2c0,37.7,30.6,68.2,68.2,68.2c37.7,0,68.2-30.5,68.2-68.2c0-24.1-12.5-45.3-31.3-57.4l-0.3-0.2   l44.5-155.9l4.2,0.1c37.7,0,68.2-30.6,68.2-68.2C512,43.4,481.5,12.9,443.7,12.8L443.7,12.8z M68.4,464.9   c-18.8,0-34.1-15.3-34.1-34.1s15.3-34.1,34.1-34.1s34.1,15.3,34.1,34.1C102.5,449.6,87.3,464.8,68.4,464.9z M170.8,251.6   c-18.8,0-34.1-15.3-34.1-34.1s15.3-34.1,34.1-34.1s34.1,15.3,34.1,34.1C204.9,236.3,189.6,251.6,170.8,251.6z M358.4,396.6   c-18.8,0-34.1-15.3-34.1-34.1s15.3-34.1,34.1-34.1s34.1,15.3,34.1,34.1C392.5,381.3,377.3,396.6,358.4,396.6z M443.7,115.2   c-18.8,0-34.1-15.3-34.1-34.1s15.3-34.1,34.1-34.1c18.8,0,34.1,15.3,34.1,34.1C477.8,99.9,462.6,115.1,443.7,115.2z"
   id="path864"
   style="fill:#ffffff" />
</g>
</svg>